<svg width="44" height="44" viewBox="0 0 44 44" fill="none" xmlns="http://www.w3.org/2000/svg">
<path opacity="0.5" d="M17.1875 15.125H6.1875C4.66872 15.125 3.4375 16.3562 3.4375 17.875V28.875C3.4375 30.3938 4.66872 31.625 6.1875 31.625H17.1875C18.7063 31.625 19.9375 30.3938 19.9375 28.875V17.875C19.9375 16.3562 18.7063 15.125 17.1875 15.125Z" fill="#25D9FF"/>
<path d="M29.1087 37.1298C28.3048 37.1295 27.5246 36.8578 26.8944 36.3586C26.2643 35.8595 25.8211 35.1622 25.6368 34.3798L24.3924 29.2854C24.3523 29.0408 24.2266 28.8184 24.0377 28.6579C23.8488 28.4974 23.609 28.4093 23.3612 28.4093C23.1133 28.4093 22.8735 28.4974 22.6846 28.6579C22.4957 28.8184 22.37 29.0408 22.3299 29.2854L21.113 34.3798C20.9188 35.1667 20.4628 35.8642 19.82 36.358C19.1772 36.8518 18.3857 37.1125 17.5753 37.0973C16.7649 37.0821 15.9837 36.7919 15.3598 36.2744C14.7359 35.7569 14.3065 35.0428 14.1418 34.2491C13.7362 32.2966 13.1518 29.4366 12.6843 27.161C12.3395 25.3225 11.5487 23.5968 10.3812 22.1354C8.82696 20.236 8.0857 17.7998 8.31867 15.3566C8.53741 13.192 9.49717 11.1694 11.0356 9.63103C12.574 8.09263 14.5966 7.13287 16.7612 6.91413C18.0705 6.79275 19.3906 6.95454 20.6318 7.38851C22.4118 8.01374 24.3518 8.01374 26.1318 7.38851C27.8568 6.79561 29.718 6.72257 31.4842 7.17848C33.2503 7.63438 34.8437 8.59913 36.0662 9.95288C36.1627 10.0597 36.2233 10.1942 36.2393 10.3372C36.2553 10.4803 36.226 10.6248 36.1555 10.7504C35.9222 11.176 35.6306 11.5671 35.2893 11.9123C34.9672 12.2314 34.6043 12.5065 34.2099 12.7304C34.9982 13.1851 35.6527 13.8396 36.1074 14.6279C36.3297 14.2346 36.605 13.8737 36.9255 13.5554C36.9746 13.5034 37.0274 13.4551 37.0837 13.411C37.1723 13.3403 37.2771 13.2926 37.3887 13.2722C37.5002 13.2519 37.6151 13.2594 37.723 13.2941C37.8314 13.3285 37.9296 13.3891 38.0088 13.4707C38.088 13.5523 38.1457 13.6523 38.1768 13.7616C38.5779 15.2038 38.6229 16.7217 38.308 18.1851C37.993 19.6484 37.3275 21.0135 36.3687 22.1629C35.2012 23.6243 34.4103 25.35 34.0655 27.1885C33.598 29.4779 32.9999 32.3173 32.608 34.2766C32.4444 35.0834 32.0063 35.8085 31.3683 36.3286C30.7303 36.8488 29.9318 37.1319 29.1087 37.1298ZM23.3749 27.1404C23.918 27.134 24.4471 27.3131 24.8746 27.6481C25.3022 27.9831 25.6026 28.454 25.7262 28.9829L26.9705 34.0773C27.0896 34.5616 27.3697 34.9911 27.7649 35.2954C28.1602 35.5997 28.647 35.7606 29.1457 35.7518C29.6444 35.743 30.1253 35.565 30.5096 35.247C30.8938 34.929 31.1586 34.4899 31.2605 34.0016C31.6662 32.0491 32.2505 29.1891 32.718 26.9135C33.1141 24.8651 34.0038 22.9442 35.3099 21.3173C36.6272 19.7414 37.2783 17.7142 37.1249 15.666C36.9044 16.145 36.7873 16.665 36.7812 17.1923C36.7812 17.3746 36.7087 17.5495 36.5798 17.6784C36.4509 17.8073 36.276 17.8798 36.0937 17.8798C35.9113 17.8798 35.7365 17.8073 35.6075 17.6784C35.4786 17.5495 35.4062 17.3746 35.4062 17.1923C35.4044 16.19 35.0054 15.2292 34.2967 14.5205C33.5879 13.8118 32.6272 13.4128 31.6249 13.411C31.4426 13.411 31.2677 13.3386 31.1388 13.2096C31.0099 13.0807 30.9374 12.9058 30.9374 12.7235C30.9374 12.5412 31.0099 12.3663 31.1388 12.2374C31.2677 12.1084 31.4426 12.036 31.6249 12.036C32.63 12.0367 33.5943 11.6386 34.3062 10.9291C34.4402 10.7958 34.5621 10.6509 34.6705 10.496C33.6185 9.47728 32.3057 8.76876 30.8767 8.44851C29.4477 8.12826 27.958 8.20871 26.5718 8.68101C24.5011 9.39924 22.2488 9.39924 20.178 8.68101C19.1217 8.3134 17.9985 8.17741 16.8849 8.28226C15.0305 8.46151 13.2959 9.27946 11.9779 10.5962C10.6599 11.913 9.84031 13.6468 9.6593 15.501C9.55739 16.54 9.66227 17.589 9.96789 18.5872C10.2735 19.5855 10.7738 20.5134 11.4399 21.3173C12.7497 22.9524 13.6395 24.8831 14.0318 26.941C14.4993 29.2373 15.0837 32.0835 15.4893 34.036C15.5651 34.403 15.7333 34.7445 15.978 35.0282C16.2228 35.312 16.5359 35.5285 16.8878 35.6572C17.2397 35.786 17.6186 35.8228 17.9887 35.764C18.3588 35.7053 18.7077 35.553 19.0024 35.3216C19.3916 35.0186 19.6657 34.5917 19.7793 34.1116L21.0237 29.0173C21.1405 28.482 21.438 28.0033 21.8661 27.6615C22.2943 27.3197 22.8271 27.1357 23.3749 27.1404Z" fill="white"/>
<path d="M23.3749 12.8748C21.0203 12.8309 18.714 12.1999 16.6649 11.0392C16.5404 10.9346 16.457 10.7894 16.4294 10.6291C16.4018 10.4689 16.4319 10.3041 16.5144 10.164C16.5968 10.0239 16.7262 9.9175 16.8796 9.86375C17.0331 9.81 17.2006 9.81236 17.3524 9.8704C19.1988 10.892 21.2653 11.4511 23.3749 11.4998C25.4752 11.4467 27.5317 10.8877 29.3699 9.8704C29.4465 9.80615 29.5361 9.75936 29.6326 9.73329C29.729 9.70721 29.83 9.70248 29.9285 9.71943C30.027 9.73637 30.1206 9.77458 30.2028 9.83139C30.285 9.88821 30.3538 9.96226 30.4045 10.0484C30.4552 10.1345 30.4865 10.2307 30.4962 10.3301C30.5059 10.4296 30.4938 10.53 30.4608 10.6243C30.4277 10.7186 30.3745 10.8046 30.3049 10.8762C30.2352 10.9479 30.1508 11.0035 30.0574 11.0392C28.0165 12.1955 25.7201 12.8263 23.3749 12.8748Z" fill="white"/>
<path d="M36.0938 17.8796C35.9114 17.8796 35.7365 17.8072 35.6076 17.6783C35.4787 17.5493 35.4062 17.3745 35.4062 17.1921C35.4044 16.1898 35.0055 15.2291 34.2967 14.5204C33.588 13.8117 32.6273 13.4127 31.625 13.4109C31.4427 13.4109 31.2678 13.3385 31.1389 13.2095C31.0099 13.0806 30.9375 12.9057 30.9375 12.7234C30.9375 12.5411 31.0099 12.3662 31.1389 12.2373C31.2678 12.1083 31.4427 12.0359 31.625 12.0359C32.6301 12.0365 33.5943 11.6385 34.3063 10.929C34.5575 10.673 34.7726 10.3839 34.9456 10.0696C35.2495 9.51304 35.4079 8.88876 35.4062 8.25464C35.4062 8.0723 35.4787 7.89743 35.6076 7.7685C35.7365 7.63957 35.9114 7.56714 36.0938 7.56714C36.2761 7.56714 36.451 7.63957 36.5799 7.7685C36.7088 7.89743 36.7812 8.0723 36.7812 8.25464C36.7794 8.75171 36.876 9.24423 37.0654 9.70381C37.2548 10.1634 37.5332 10.581 37.8847 10.9324C38.2362 11.2839 38.6537 11.5624 39.1133 11.7518C39.5729 11.9411 40.0654 12.0377 40.5625 12.0359C40.7448 12.0359 40.9197 12.1083 41.0486 12.2373C41.1776 12.3662 41.25 12.5411 41.25 12.7234C41.25 12.9057 41.1776 13.0806 41.0486 13.2095C40.9197 13.3385 40.7448 13.4109 40.5625 13.4109C39.6246 13.408 38.7196 13.7562 38.0256 14.3871L37.9363 14.4765C37.5715 14.8286 37.2813 15.2505 37.0829 15.717C36.8845 16.1835 36.7819 16.6852 36.7812 17.1921C36.7812 17.3745 36.7088 17.5493 36.5799 17.6783C36.451 17.8072 36.2761 17.8796 36.0938 17.8796ZM34.1963 12.7234C34.9845 13.1781 35.639 13.8326 36.0938 14.6209C36.316 14.2276 36.5913 13.8667 36.9119 13.5484L37.0012 13.459C37.2908 13.1951 37.6091 12.9645 37.95 12.7715C37.1655 12.3172 36.5137 11.6654 36.0594 10.8809C35.8317 11.2706 35.5569 11.6308 35.2412 11.9534C34.9269 12.2532 34.5757 12.512 34.1963 12.7234Z" fill="#25D9FF"/>
</svg>
