<svg width="44" height="44" viewBox="0 0 44 44" fill="none" xmlns="http://www.w3.org/2000/svg">
<path opacity="0.5" d="M28.875 25.4375H17.875C16.3562 25.4375 15.125 26.6687 15.125 28.1875V39.1875C15.125 40.7063 16.3562 41.9375 17.875 41.9375H28.875C30.3938 41.9375 31.625 40.7063 31.625 39.1875V28.1875C31.625 26.6687 30.3938 25.4375 28.875 25.4375Z" fill="#4FE5B5"/>
<path d="M26.4 35.0625H4.8125C4.63016 35.0625 4.4553 34.9901 4.32636 34.8611C4.19743 34.7322 4.125 34.5573 4.125 34.375V12.375C4.125 12.1927 4.19743 12.0178 4.32636 11.8889C4.4553 11.7599 4.63016 11.6875 4.8125 11.6875H33C33.1823 11.6875 33.3572 11.7599 33.4861 11.8889C33.6151 12.0178 33.6875 12.1927 33.6875 12.375V24.365C33.6944 24.5166 33.651 24.6663 33.5639 24.7907C33.4769 24.9151 33.3511 25.0071 33.2062 25.0525C32.1073 25.3911 30.9286 25.367 29.8444 24.9838C29.7068 24.939 29.5668 24.9023 29.425 24.8738C29.0452 24.7666 28.65 24.7248 28.2562 24.75C27.8556 24.7809 27.4629 24.8785 27.0944 25.0387C26.4506 25.3131 25.893 25.7563 25.4803 26.3214C25.0677 26.8866 24.8153 27.5527 24.75 28.2494C24.6557 29.2569 24.9648 30.2606 25.6094 31.0406C26.3197 31.9409 26.8073 32.9962 27.0325 34.1206V34.265C27.0482 34.3637 27.0422 34.4647 27.0149 34.5609C26.9876 34.6571 26.9396 34.7461 26.8744 34.8219C26.8152 34.8915 26.7428 34.9486 26.6614 34.9899C26.58 35.0312 26.4911 35.0559 26.4 35.0625ZM5.5 33.6875H25.5131C25.3107 33.0435 24.9914 32.4422 24.5712 31.9137C24.0548 31.2893 23.6911 30.553 23.509 29.7634C23.327 28.9738 23.3316 28.1526 23.5224 27.365C23.7133 26.5775 24.0852 25.8453 24.6086 25.2267C25.132 24.608 25.7925 24.12 26.5375 23.8012C27.044 23.5709 27.5854 23.4268 28.1394 23.375C28.6689 23.324 29.2032 23.3612 29.7206 23.485C29.9136 23.5242 30.1042 23.5747 30.2912 23.6363C30.9389 23.8668 31.6352 23.926 32.3125 23.8081V13.0625H5.5V33.6875Z" fill="white"/>
<path d="M33 13.0625H4.8125C4.63016 13.0625 4.4553 12.9901 4.32636 12.8611C4.19743 12.7322 4.125 12.5573 4.125 12.375V6.875C4.125 6.69266 4.19743 6.5178 4.32636 6.38886C4.4553 6.25993 4.63016 6.1875 4.8125 6.1875H33C33.1823 6.1875 33.3572 6.25993 33.4861 6.38886C33.6151 6.5178 33.6875 6.69266 33.6875 6.875V12.375C33.6875 12.5573 33.6151 12.7322 33.4861 12.8611C33.3572 12.9901 33.1823 13.0625 33 13.0625ZM5.5 11.6875H32.3125V7.5625H5.5V11.6875Z" fill="white"/>
<path d="M8.9375 9.625C8.75516 9.625 8.5803 9.55257 8.45136 9.42364C8.32243 9.2947 8.25 9.11984 8.25 8.9375V4.8125C8.25 4.63016 8.32243 4.4553 8.45136 4.32636C8.5803 4.19743 8.75516 4.125 8.9375 4.125C9.11984 4.125 9.2947 4.19743 9.42364 4.32636C9.55257 4.4553 9.625 4.63016 9.625 4.8125V8.9375C9.625 9.11984 9.55257 9.2947 9.42364 9.42364C9.2947 9.55257 9.11984 9.625 8.9375 9.625Z" fill="white"/>
<path d="M13.0625 9.625C12.8802 9.625 12.7053 9.55257 12.5764 9.42364C12.4474 9.2947 12.375 9.11984 12.375 8.9375V4.8125C12.375 4.63016 12.4474 4.4553 12.5764 4.32636C12.7053 4.19743 12.8802 4.125 13.0625 4.125C13.2448 4.125 13.4197 4.19743 13.5486 4.32636C13.6776 4.4553 13.75 4.63016 13.75 4.8125V8.9375C13.75 9.11984 13.6776 9.2947 13.5486 9.42364C13.4197 9.55257 13.2448 9.625 13.0625 9.625Z" fill="white"/>
<path d="M24.75 9.625C24.5677 9.625 24.3928 9.55257 24.2639 9.42364C24.1349 9.2947 24.0625 9.11984 24.0625 8.9375V4.8125C24.0625 4.63016 24.1349 4.4553 24.2639 4.32636C24.3928 4.19743 24.5677 4.125 24.75 4.125C24.9323 4.125 25.1072 4.19743 25.2361 4.32636C25.3651 4.4553 25.4375 4.63016 25.4375 4.8125V8.9375C25.4375 9.11984 25.3651 9.2947 25.2361 9.42364C25.1072 9.55257 24.9323 9.625 24.75 9.625Z" fill="white"/>
<path d="M28.875 9.625C28.6927 9.625 28.5178 9.55257 28.3889 9.42364C28.2599 9.2947 28.1875 9.11984 28.1875 8.9375V4.8125C28.1875 4.63016 28.2599 4.4553 28.3889 4.32636C28.5178 4.19743 28.6927 4.125 28.875 4.125C29.0573 4.125 29.2322 4.19743 29.3611 4.32636C29.4901 4.4553 29.5625 4.63016 29.5625 4.8125V8.9375C29.5625 9.11984 29.4901 9.2947 29.3611 9.42364C29.2322 9.55257 29.0573 9.625 28.875 9.625Z" fill="white"/>
<path d="M17.1875 19.25H14.4375C14.2552 19.25 14.0803 19.1776 13.9514 19.0486C13.8224 18.9197 13.75 18.7448 13.75 18.5625V15.8125C13.75 15.6302 13.8224 15.4553 13.9514 15.3264C14.0803 15.1974 14.2552 15.125 14.4375 15.125H17.1875C17.3698 15.125 17.5447 15.1974 17.6736 15.3264C17.8026 15.4553 17.875 15.6302 17.875 15.8125V18.5625C17.875 18.7448 17.8026 18.9197 17.6736 19.0486C17.5447 19.1776 17.3698 19.25 17.1875 19.25ZM15.125 17.875H16.5V16.5H15.125V17.875Z" fill="white"/>
<path d="M23.375 19.25H20.625C20.4427 19.25 20.2678 19.1776 20.1389 19.0486C20.0099 18.9197 19.9375 18.7448 19.9375 18.5625V15.8125C19.9375 15.6302 20.0099 15.4553 20.1389 15.3264C20.2678 15.1974 20.4427 15.125 20.625 15.125H23.375C23.5573 15.125 23.7322 15.1974 23.8611 15.3264C23.9901 15.4553 24.0625 15.6302 24.0625 15.8125V18.5625C24.0625 18.7448 23.9901 18.9197 23.8611 19.0486C23.7322 19.1776 23.5573 19.25 23.375 19.25ZM21.3125 17.875H22.6875V16.5H21.3125V17.875Z" fill="white"/>
<path d="M29.5625 19.25H26.8125C26.6302 19.25 26.4553 19.1776 26.3264 19.0486C26.1974 18.9197 26.125 18.7448 26.125 18.5625V15.8125C26.125 15.6302 26.1974 15.4553 26.3264 15.3264C26.4553 15.1974 26.6302 15.125 26.8125 15.125H29.5625C29.7448 15.125 29.9197 15.1974 30.0486 15.3264C30.1776 15.4553 30.25 15.6302 30.25 15.8125V18.5625C30.25 18.7448 30.1776 18.9197 30.0486 19.0486C29.9197 19.1776 29.7448 19.25 29.5625 19.25ZM27.5 17.875H28.875V16.5H27.5V17.875Z" fill="white"/>
<path d="M11 25.4375H8.25C8.06766 25.4375 7.8928 25.3651 7.76386 25.2361C7.63493 25.1072 7.5625 24.9323 7.5625 24.75V22C7.5625 21.8177 7.63493 21.6428 7.76386 21.5139C7.8928 21.3849 8.06766 21.3125 8.25 21.3125H11C11.1823 21.3125 11.3572 21.3849 11.4861 21.5139C11.6151 21.6428 11.6875 21.8177 11.6875 22V24.75C11.6875 24.9323 11.6151 25.1072 11.4861 25.2361C11.3572 25.3651 11.1823 25.4375 11 25.4375ZM8.9375 24.0625H10.3125V22.6875H8.9375V24.0625Z" fill="white"/>
<path d="M17.1875 25.4375H14.4375C14.2552 25.4375 14.0803 25.3651 13.9514 25.2361C13.8224 25.1072 13.75 24.9323 13.75 24.75V22C13.75 21.8177 13.8224 21.6428 13.9514 21.5139C14.0803 21.3849 14.2552 21.3125 14.4375 21.3125H17.1875C17.3698 21.3125 17.5447 21.3849 17.6736 21.5139C17.8026 21.6428 17.875 21.8177 17.875 22V24.75C17.875 24.9323 17.8026 25.1072 17.6736 25.2361C17.5447 25.3651 17.3698 25.4375 17.1875 25.4375ZM15.125 24.0625H16.5V22.6875H15.125V24.0625Z" fill="white"/>
<path d="M23.375 25.4375H20.625C20.4427 25.4375 20.2678 25.3651 20.1389 25.2361C20.0099 25.1072 19.9375 24.9323 19.9375 24.75V22C19.9375 21.8177 20.0099 21.6428 20.1389 21.5139C20.2678 21.3849 20.4427 21.3125 20.625 21.3125H23.375C23.5573 21.3125 23.7322 21.3849 23.8611 21.5139C23.9901 21.6428 24.0625 21.8177 24.0625 22V24.75C24.0625 24.9323 23.9901 25.1072 23.8611 25.2361C23.7322 25.3651 23.5573 25.4375 23.375 25.4375ZM21.3125 24.0625H22.6875V22.6875H21.3125V24.0625Z" fill="white"/>
<path d="M11 31.625H8.25C8.06766 31.625 7.8928 31.5526 7.76386 31.4236C7.63493 31.2947 7.5625 31.1198 7.5625 30.9375V28.1875C7.5625 28.0052 7.63493 27.8303 7.76386 27.7014C7.8928 27.5724 8.06766 27.5 8.25 27.5H11C11.1823 27.5 11.3572 27.5724 11.4861 27.7014C11.6151 27.8303 11.6875 28.0052 11.6875 28.1875V30.9375C11.6875 31.1198 11.6151 31.2947 11.4861 31.4236C11.3572 31.5526 11.1823 31.625 11 31.625ZM8.9375 30.25H10.3125V28.875H8.9375V30.25Z" fill="white"/>
<path d="M17.1875 31.625H14.4375C14.2552 31.625 14.0803 31.5526 13.9514 31.4236C13.8224 31.2947 13.75 31.1198 13.75 30.9375V28.1875C13.75 28.0052 13.8224 27.8303 13.9514 27.7014C14.0803 27.5724 14.2552 27.5 14.4375 27.5H17.1875C17.3698 27.5 17.5447 27.5724 17.6736 27.7014C17.8026 27.8303 17.875 28.0052 17.875 28.1875V30.9375C17.875 31.1198 17.8026 31.2947 17.6736 31.4236C17.5447 31.5526 17.3698 31.625 17.1875 31.625ZM15.125 30.25H16.5V28.875H15.125V30.25Z" fill="white"/>
<path d="M34.6294 39.8752C34.1363 39.8766 33.6572 39.7119 33.2692 39.4075C32.8813 39.1032 32.6072 38.6769 32.4913 38.1977L31.8451 35.5371C31.8327 35.4881 31.8044 35.4446 31.7645 35.4135C31.7247 35.3825 31.6756 35.3656 31.6251 35.3656C31.5745 35.3656 31.5255 35.3825 31.4856 35.4135C31.4457 35.4446 31.4174 35.4881 31.4051 35.5371L30.7588 38.1977C30.6402 38.6756 30.3671 39.101 29.9819 39.4077C29.6872 39.6391 29.3383 39.7913 28.9682 39.8501C28.5981 39.9088 28.2192 39.872 27.8673 39.7433C27.5154 39.6145 27.2023 39.398 26.9575 39.1143C26.7128 38.8305 26.5446 38.489 26.4688 38.1221L26.2007 36.8158C26.0494 36.0596 25.8776 35.2414 25.7263 34.5196V34.4096C25.5487 33.5004 25.1601 32.6456 24.5919 31.9139C24.0755 31.2895 23.7118 30.5532 23.5297 29.7636C23.3477 28.9739 23.3522 28.1527 23.5431 27.3652C23.734 26.5777 24.1059 25.8455 24.6293 25.2268C25.1527 24.6082 25.8131 24.1201 26.5582 23.8014C27.0582 23.5733 27.5925 23.4292 28.1394 23.3752C28.669 23.3242 29.2033 23.3614 29.7207 23.4852C29.9137 23.5244 30.1042 23.5749 30.2913 23.6364C31.098 23.9224 31.9753 23.9417 32.7938 23.6914L32.9107 23.6502L33.2407 23.5471H33.3232C33.9085 23.3826 34.5186 23.3244 35.1244 23.3752C35.6385 23.4131 36.1427 23.5362 36.6163 23.7396C37.0556 23.9077 37.4679 24.1393 37.8401 24.4271C38.417 24.869 38.8958 25.426 39.2461 26.0627C39.5964 26.6994 39.8106 27.4019 39.8751 28.1258C39.9989 29.4963 39.5764 30.8603 38.6994 31.9208C38.3631 32.3345 38.094 32.7985 37.9019 33.2958C37.7542 33.6554 37.6414 34.0284 37.5651 34.4096C37.4069 35.1796 37.2213 36.0733 37.0494 36.8846C36.9601 37.3521 36.8776 37.7646 36.8019 38.1289C36.7808 38.2418 36.7485 38.3524 36.7057 38.4589C36.5615 38.8231 36.3245 39.1431 36.0182 39.3871C35.6262 39.7064 35.135 39.879 34.6294 39.8752ZM31.6251 33.9902C31.984 33.9855 32.3337 34.1036 32.6163 34.3249C32.8989 34.5463 33.0973 34.8575 33.1788 35.2071L33.8251 37.8677C33.8684 38.0483 33.9714 38.2089 34.1173 38.3237C34.2633 38.4385 34.4437 38.5007 34.6294 38.5002C34.8149 38.5032 34.9954 38.4398 35.1382 38.3214C35.2538 38.2316 35.3438 38.1131 35.3994 37.9777C35.3994 37.9777 35.3994 37.9089 35.3994 37.8746C35.4819 37.4896 35.5644 37.0908 35.6469 36.6577C35.8257 35.7983 36.0113 34.9046 36.1694 34.1277C36.2598 33.6565 36.398 33.1958 36.5819 32.7527C36.8251 32.1233 37.1662 31.5363 37.5926 31.0133C38.2475 30.2477 38.5736 29.2544 38.5001 28.2496C38.4494 27.7238 38.2915 27.214 38.0361 26.7516C37.7807 26.2893 37.4332 25.8842 37.0151 25.5614C36.741 25.3419 36.435 25.1657 36.1076 25.0389C35.7595 24.8823 35.3877 24.7847 35.0076 24.7502C34.565 24.7025 34.1174 24.7375 33.6876 24.8533H33.6119L33.4194 24.9152H33.3507L33.1513 24.9771C32.0685 25.3035 30.9096 25.2746 29.8444 24.8946C29.7069 24.8498 29.5669 24.8131 29.4251 24.7846C29.0402 24.7074 28.645 24.6957 28.2563 24.7502C27.8556 24.7811 27.4629 24.8787 27.0944 25.0389C26.4507 25.3133 25.893 25.7565 25.4804 26.3216C25.0677 26.8867 24.8154 27.5529 24.7501 28.2496C24.6558 29.257 24.9648 30.2608 25.6094 31.0408C26.3197 31.9411 26.8074 32.9964 27.0326 34.1208V34.2652C27.1769 34.9527 27.3419 35.7846 27.5001 36.5408L27.7682 37.8471C27.8004 38.0378 27.8986 38.2111 28.0456 38.3367C28.1927 38.4624 28.3792 38.5324 28.5726 38.5346C28.7545 38.5357 28.9314 38.4751 29.0744 38.3627C29.2234 38.2497 29.3299 38.0899 29.3769 37.9089L30.0232 35.2414C30.0993 34.8772 30.3019 34.5517 30.5951 34.3227C30.8884 34.0936 31.2532 33.9758 31.6251 33.9902Z" fill="#4FE5B5"/>
<path d="M31.6251 27.6442C30.47 27.6074 29.3482 27.2477 28.387 26.6061C28.3097 26.5549 28.2436 26.4887 28.1925 26.4114C28.1415 26.3341 28.1066 26.2472 28.09 26.1561C28.0734 26.0649 28.0754 25.9713 28.0958 25.881C28.1163 25.7906 28.1548 25.7053 28.209 25.6302C28.2633 25.5551 28.3321 25.4917 28.4115 25.4439C28.4908 25.3961 28.579 25.3648 28.6708 25.3519C28.7626 25.339 28.856 25.3448 28.9454 25.3689C29.0349 25.3931 29.1185 25.435 29.1914 25.4923C29.9178 25.9658 30.7587 26.2342 31.6251 26.2692C32.4915 26.2342 33.3324 25.9658 34.0589 25.4923C34.1317 25.435 34.2153 25.3931 34.3048 25.3689C34.3942 25.3448 34.4877 25.339 34.5794 25.3519C34.6712 25.3648 34.7594 25.3961 34.8387 25.4439C34.9181 25.4917 34.9869 25.5551 35.0412 25.6302C35.0954 25.7053 35.1339 25.7906 35.1544 25.881C35.1748 25.9713 35.1768 26.0649 35.1602 26.1561C35.1436 26.2472 35.1087 26.3341 35.0577 26.4114C35.0066 26.4887 34.9405 26.5549 34.8632 26.6061C33.902 27.2477 32.7803 27.6074 31.6251 27.6442Z" fill="#4FE5B5"/>
</svg>
