<svg width="34" height="34" viewBox="0 0 34 34" fill="none" xmlns="http://www.w3.org/2000/svg">
<path d="M24.0834 29.75V26.9167C24.0834 25.4138 23.4864 23.9724 22.4237 22.9097C21.361 21.847 19.9196 21.25 18.4167 21.25H7.08341C5.58052 21.25 4.13918 21.847 3.07648 22.9097C2.01377 23.9724 1.41675 25.4138 1.41675 26.9167V29.75" stroke="white" stroke-width="2" stroke-linecap="round" stroke-linejoin="round"/>
<path d="M12.7499 15.5833C15.8795 15.5833 18.4166 13.0463 18.4166 9.91667C18.4166 6.78705 15.8795 4.25 12.7499 4.25C9.6203 4.25 7.08325 6.78705 7.08325 9.91667C7.08325 13.0463 9.6203 15.5833 12.7499 15.5833Z" fill="white" stroke="white" stroke-width="2" stroke-linecap="round" stroke-linejoin="round"/>
<path d="M32.5833 29.75V26.9167C32.5823 25.6612 32.1644 24.4415 31.3952 23.4491C30.626 22.4568 29.5489 21.7481 28.3333 21.4342" stroke="white" stroke-width="2" stroke-linecap="round" stroke-linejoin="round"/>
<path d="M22.6667 4.4342C23.8857 4.7463 24.9661 5.4552 25.7376 6.44914C26.5091 7.44309 26.9279 8.66555 26.9279 9.92379C26.9279 11.182 26.5091 12.4045 25.7376 13.3984C24.9661 14.3924 23.8857 15.1013 22.6667 15.4134" stroke="white" stroke-width="2" stroke-linecap="round" stroke-linejoin="round"/>
</svg>
