<svg width="44" height="44" viewBox="0 0 44 44" fill="none" xmlns="http://www.w3.org/2000/svg">
<path opacity="0.5" d="M18.5625 15.8125H7.5625C6.04372 15.8125 4.8125 17.0437 4.8125 18.5625V29.5625C4.8125 31.0813 6.04372 32.3125 7.5625 32.3125H18.5625C20.0813 32.3125 21.3125 31.0813 21.3125 29.5625V18.5625C21.3125 17.0437 20.0813 15.8125 18.5625 15.8125Z" fill="#4FE5B5"/>
<path d="M29.7757 24.75H14.2245C13.4727 24.7551 12.7379 24.5263 12.122 24.0951C11.506 23.664 11.0395 23.0519 10.787 22.3437C10.6426 21.9381 10.4914 21.3675 10.3195 20.7144C9.96199 19.4012 9.48074 17.5931 8.98574 16.9812C8.19414 15.9953 7.60456 14.8631 7.25067 13.6492C6.89677 12.4354 6.78551 11.1637 6.92324 9.90685C7.13023 7.73315 8.08495 5.69859 9.62455 4.15021C11.1641 2.60184 13.1932 1.63557 15.3657 1.41623C16.6796 1.29131 18.0049 1.45317 19.2501 1.8906C21.0277 2.52988 22.9725 2.52988 24.7501 1.8906C25.9996 1.45118 27.3298 1.2893 28.6482 1.41623C30.817 1.64006 32.8413 2.60831 34.3767 4.15627C35.9122 5.70424 36.8639 7.73632 37.0701 9.90685C37.2078 11.1637 37.0966 12.4354 36.7427 13.6492C36.3888 14.8631 35.7992 15.9953 35.0076 16.9812C34.5126 17.5931 34.0314 19.4012 33.6739 20.7144C33.502 21.3675 33.3507 21.9381 33.2064 22.3437C32.9543 23.0508 32.4888 23.6621 31.8742 24.0931C31.2597 24.5242 30.5264 24.7537 29.7757 24.75ZM16.2251 2.74998C15.9845 2.74998 15.737 2.74998 15.4964 2.74998C13.6438 2.96059 11.9192 3.79925 10.6095 5.12639C9.2999 6.45353 8.48422 8.18913 8.29824 10.0444C8.17915 11.1243 8.27454 12.2171 8.57893 13.26C8.88332 14.303 9.39072 15.2755 10.072 16.1219C10.7595 16.9606 11.2339 18.7687 11.6601 20.3569C11.8182 20.9619 11.9695 21.5325 12.1001 21.89C12.2568 22.3271 12.5453 22.7047 12.9259 22.9707C13.3064 23.2367 13.7602 23.378 14.2245 23.375H29.7757C30.24 23.378 30.6938 23.2367 31.0744 22.9707C31.4549 22.7047 31.7435 22.3271 31.9001 21.89C32.0307 21.5325 32.182 20.9619 32.3401 20.3569C32.7664 18.7687 33.2545 16.9606 33.9282 16.1219C34.6095 15.2755 35.1169 14.303 35.4213 13.26C35.7257 12.2171 35.8211 11.1243 35.702 10.0444C35.5086 8.1953 34.6897 6.46769 33.3807 5.14747C32.0717 3.82724 30.3512 2.99354 28.5039 2.78435C27.3852 2.6797 26.2572 2.81807 25.197 3.18998C23.1292 3.92578 20.871 3.92578 18.8032 3.18998C17.9756 2.89618 17.1034 2.74733 16.2251 2.74998Z" fill="white"/>
<path d="M21.9999 7.36989C19.6453 7.32598 17.339 6.69503 15.2899 5.53427C15.1966 5.49859 15.1121 5.44299 15.0425 5.37134C14.9728 5.29969 14.9196 5.21371 14.8866 5.1194C14.8535 5.02509 14.8414 4.92471 14.8512 4.82525C14.8609 4.72579 14.8922 4.62965 14.9428 4.54351C14.9935 4.45738 15.0623 4.38333 15.1445 4.32651C15.2267 4.2697 15.3203 4.23149 15.4188 4.21454C15.5173 4.1976 15.6183 4.20233 15.7148 4.2284C15.8113 4.25448 15.9009 4.30127 15.9774 4.36552C17.8231 5.38892 19.89 5.94811 21.9999 5.99489C24.1005 5.94368 26.1574 5.38463 27.9949 4.36552C28.0715 4.30127 28.1611 4.25448 28.2576 4.2284C28.354 4.20233 28.455 4.1976 28.5535 4.21454C28.652 4.23149 28.7456 4.2697 28.8278 4.32651C28.91 4.38333 28.9788 4.45738 29.0295 4.54351C29.0802 4.62965 29.1115 4.72579 29.1212 4.82525C29.1309 4.92471 29.1188 5.02509 29.0858 5.1194C29.0527 5.21371 28.9995 5.29969 28.9299 5.37134C28.8602 5.44299 28.7758 5.49859 28.6824 5.53427C26.6415 6.69063 24.3451 7.32143 21.9999 7.36989Z" fill="white"/>
<path d="M24.75 42.625H19.3188C19.1925 42.6253 19.0687 42.5908 18.9607 42.5253C18.8528 42.4598 18.765 42.3658 18.7069 42.2537L15.2694 35.7087C15.2267 35.6228 15.201 35.5294 15.1938 35.4338L14.3825 24.1106C14.3765 24.0165 14.3898 23.9222 14.4217 23.8335C14.4537 23.7448 14.5035 23.6636 14.5682 23.595C14.6323 23.5259 14.7099 23.4707 14.7962 23.4328C14.8826 23.395 14.9758 23.3753 15.07 23.375H28.93C29.0243 23.3753 29.1175 23.395 29.2038 23.4328C29.2902 23.4707 29.3678 23.5259 29.4319 23.595C29.4965 23.6636 29.5464 23.7448 29.5783 23.8335C29.6102 23.9222 29.6236 24.0165 29.6175 24.1106L28.875 35.4338C28.8678 35.5294 28.8421 35.6228 28.7994 35.7087L25.3619 42.2537C25.3038 42.3658 25.216 42.4598 25.1081 42.5253C25.0002 42.5908 24.8763 42.6253 24.75 42.625ZM19.7313 41.25H24.3375L27.5 35.2L28.1875 24.75H15.8125L16.5 35.2L19.7313 41.25Z" fill="white"/>
<path d="M30.25 28.875H30.195L13.695 27.5C13.5127 27.4854 13.3436 27.399 13.225 27.2597C13.1064 27.1205 13.0479 26.9398 13.0625 26.7575C13.0771 26.5752 13.1635 26.4061 13.3028 26.2875C13.442 26.1689 13.6227 26.1104 13.805 26.125L30.305 27.5C30.4873 27.5073 30.6593 27.5867 30.7831 27.7208C30.9069 27.8549 30.9723 28.0327 30.965 28.215C30.9577 28.3973 30.8783 28.5693 30.7442 28.6931C30.6101 28.8169 30.4323 28.8823 30.25 28.875Z" fill="white"/>
<path d="M30.2499 32.3124H30.1949L13.6949 30.9374C13.6045 30.9305 13.5164 30.9057 13.4356 30.8646C13.3548 30.8235 13.283 30.7668 13.2242 30.6978C13.1654 30.6288 13.1209 30.5488 13.0931 30.4625C13.0653 30.3762 13.0549 30.2853 13.0624 30.1949C13.0694 30.1045 13.0941 30.0164 13.1352 29.9356C13.1764 29.8548 13.2331 29.783 13.3021 29.7242C13.3711 29.6654 13.4511 29.6209 13.5374 29.5931C13.6236 29.5653 13.7146 29.5549 13.8049 29.5624L30.3049 30.9374C30.4873 30.9447 30.6592 31.0241 30.783 31.1582C30.9068 31.2923 30.9722 31.4701 30.9649 31.6524C30.9576 31.8348 30.8782 32.0067 30.7441 32.1305C30.61 32.2543 30.4323 32.3197 30.2499 32.3124Z" fill="white"/>
<path d="M29.5626 35.7501H29.5007L14.3757 34.3751C14.2854 34.367 14.1976 34.3411 14.1173 34.2991C14.037 34.257 13.9658 34.1996 13.9077 34.13C13.8496 34.0604 13.8058 33.98 13.7787 33.8935C13.7517 33.807 13.742 33.716 13.7501 33.6257C13.7582 33.5354 13.784 33.4476 13.8261 33.3673C13.8682 33.287 13.9256 33.2158 13.9952 33.1577C14.0648 33.0996 14.1451 33.0558 14.2317 33.0287C14.3182 33.0017 14.4092 32.992 14.4995 33.0001L29.6245 34.3751C29.8068 34.3833 29.9784 34.4636 30.1015 34.5983C30.2247 34.7331 30.2892 34.9112 30.281 35.0935C30.2728 35.2759 30.1925 35.4475 30.0578 35.5706C29.9231 35.6937 29.7449 35.7583 29.5626 35.7501Z" fill="white"/>
<path d="M28.1875 39.1875H28.1188L15.0563 37.8125C14.966 37.8035 14.8784 37.7768 14.7984 37.7339C14.7184 37.691 14.6477 37.6328 14.5903 37.5625C14.5328 37.4923 14.4897 37.4115 14.4635 37.3246C14.4373 37.2377 14.4285 37.1465 14.4375 37.0563C14.4465 36.966 14.4733 36.8784 14.5162 36.7984C14.559 36.7184 14.6173 36.6477 14.6875 36.5903C14.7577 36.5328 14.8386 36.4897 14.9254 36.4635C15.0123 36.4373 15.1035 36.4285 15.1938 36.4375L28.2563 37.8125C28.4386 37.8216 28.6098 37.9028 28.7323 38.0382C28.8548 38.1736 28.9185 38.352 28.9094 38.5344C28.9003 38.7167 28.8191 38.888 28.6837 39.0105C28.5483 39.1329 28.3698 39.1966 28.1875 39.1875Z" fill="white"/>
</svg>
