<svg width="44" height="44" viewBox="0 0 44 44" fill="none" xmlns="http://www.w3.org/2000/svg">
<path opacity="0.5" d="M17.1875 24.75H6.1875C4.66872 24.75 3.4375 25.9812 3.4375 27.5V38.5C3.4375 40.0188 4.66872 41.25 6.1875 41.25H17.1875C18.7063 41.25 19.9375 40.0188 19.9375 38.5V27.5C19.9375 25.9812 18.7063 24.75 17.1875 24.75Z" fill="#4FE5B5"/>
<path d="M15.125 42.6249H7.5625C7.45577 42.6249 7.3505 42.6001 7.25504 42.5523C7.15958 42.5046 7.07654 42.4353 7.0125 42.3499C6.94846 42.2645 6.90518 42.1654 6.88609 42.0604C6.867 41.9554 6.87262 41.8474 6.9025 41.7449L7.19813 40.7137C7.81614 38.5492 9.00628 36.5914 10.6433 35.0464C12.2802 33.5014 14.3035 32.4263 16.5 31.9343C16.6276 31.9083 16.7599 31.919 16.8816 31.9652C17.0033 32.0115 17.1094 32.0914 17.1875 32.1955C17.2687 32.303 17.3166 32.432 17.3252 32.5664C17.3337 32.7009 17.3026 32.8349 17.2356 32.9518L15.3656 36.2243L16.8919 37.2418C17.0437 37.3415 17.1499 37.4973 17.1873 37.675C17.2246 37.8528 17.1901 38.0381 17.0913 38.1905L15.4894 40.6174L15.8125 41.7587C15.8403 41.8606 15.8442 41.9676 15.824 42.0714C15.8037 42.1751 15.7598 42.2728 15.6956 42.3568C15.6288 42.4438 15.5421 42.5135 15.4429 42.5601C15.3436 42.6068 15.2346 42.629 15.125 42.6249ZM8.47687 41.2499H14.2244L14.0662 40.6793C14.043 40.5852 14.0389 40.4874 14.0543 40.3918C14.0697 40.2961 14.1041 40.2045 14.1556 40.1224L15.5306 38.0049L14.0388 37.008C13.8928 36.9121 13.7888 36.7642 13.7479 36.5943C13.7071 36.4245 13.7324 36.2455 13.8188 36.0937L15.1456 33.7768C13.55 34.4035 12.1203 35.3894 10.9674 36.658C9.81442 37.9266 8.96927 39.4437 8.4975 41.0918L8.47687 41.2499Z" fill="white"/>
<path d="M22.0001 42.6249C21.8449 42.6302 21.6924 42.5828 21.5676 42.4905C21.4428 42.3981 21.3529 42.2661 21.3126 42.1162L19.2501 34.2718C19.2072 34.1194 19.2182 33.9569 19.2812 33.8117C19.3442 33.6665 19.4554 33.5475 19.596 33.4748C19.7366 33.4021 19.898 33.3801 20.0529 33.4126C20.2078 33.445 20.3468 33.53 20.4463 33.653C20.64 33.8771 20.8796 34.0569 21.1489 34.1801C21.4182 34.3033 21.7108 34.3671 22.007 34.3671C22.3031 34.3671 22.5958 34.3033 22.8651 34.1801C23.1344 34.0569 23.374 33.8771 23.5676 33.653C23.6677 33.5321 23.8062 33.4492 23.9601 33.4179C24.1139 33.3866 24.2738 33.409 24.4132 33.4812C24.5508 33.5551 24.6592 33.6736 24.7204 33.8173C24.7817 33.9611 24.7921 34.1213 24.7501 34.2718L22.6876 42.1162C22.6473 42.2661 22.5574 42.3981 22.4326 42.4905C22.3078 42.5828 22.1553 42.6302 22.0001 42.6249ZM21.0238 35.6124L22.0001 39.2699L22.9763 35.6124C22.3378 35.7911 21.6624 35.7911 21.0238 35.6124Z" fill="white"/>
<path d="M36.4376 42.6248H28.8751C28.7701 42.6246 28.6666 42.6003 28.5724 42.5538C28.4783 42.5073 28.396 42.4399 28.332 42.3567C28.2678 42.2727 28.2239 42.175 28.2036 42.0713C28.1834 41.9676 28.1873 41.8606 28.2151 41.7586L28.5245 40.6173L26.9226 38.1905C26.8238 38.038 26.7892 37.8527 26.8266 37.675C26.864 37.4972 26.9701 37.3414 27.122 37.2417L28.6482 36.2242L26.8126 32.9517C26.7456 32.8348 26.7145 32.7008 26.7231 32.5663C26.7316 32.4319 26.7795 32.3029 26.8607 32.1955C26.9397 32.0925 27.0461 32.014 27.1677 31.969C27.2894 31.924 27.4213 31.9143 27.5482 31.9411C29.2745 32.3353 30.8981 33.0897 32.3126 34.1548C34.4959 35.7876 36.0789 38.0956 36.8157 40.7205L37.1251 41.7448C37.155 41.8473 37.1606 41.9553 37.1415 42.0603C37.1224 42.1653 37.0791 42.2644 37.0151 42.3498C36.9483 42.439 36.8609 42.5107 36.7603 42.5586C36.6597 42.6065 36.5489 42.6292 36.4376 42.6248ZM29.7757 41.2498H35.5232L35.482 41.0986C34.8248 38.763 33.416 36.7091 31.4739 35.2548C30.6638 34.6464 29.7759 34.1492 28.8339 33.7767L30.1607 36.0936C30.2471 36.2454 30.2724 36.4244 30.2315 36.5943C30.1907 36.7641 30.0867 36.912 29.9407 37.008L28.4489 38.0048L29.8239 40.1223C29.8754 40.2044 29.9098 40.296 29.9252 40.3917C29.9405 40.4873 29.9365 40.5851 29.9132 40.6792L29.7757 41.2498Z" fill="white"/>
<path d="M22.0001 35.7498C21.5013 35.7492 21.0087 35.64 20.5564 35.4298C20.1041 35.2197 19.7029 34.9137 19.3807 34.5329C19.3177 34.456 19.2709 34.3672 19.2432 34.2717L18.5557 31.8036C18.5512 31.7439 18.5535 31.684 18.5626 31.6248V27.7886C18.5626 27.6818 18.5874 27.5766 18.6351 27.4811C18.6829 27.3856 18.7522 27.3026 18.8376 27.2386C18.9237 27.1735 19.024 27.1296 19.1304 27.1105C19.2367 27.0913 19.346 27.0976 19.4494 27.1286C21.1137 27.6241 22.8864 27.6241 24.5507 27.1286C24.6541 27.0976 24.7635 27.0913 24.8698 27.1105C24.9761 27.1296 25.0764 27.1735 25.1626 27.2386C25.2479 27.3026 25.3172 27.3856 25.365 27.4811C25.4127 27.5766 25.4376 27.6818 25.4376 27.7886V31.6248C25.4443 31.6842 25.4443 31.7442 25.4376 31.8036L24.7501 34.2442C24.7276 34.3499 24.6805 34.4488 24.6126 34.5329C24.2911 34.9128 23.8911 35.2183 23.44 35.4284C22.9889 35.6385 22.4976 35.7482 22.0001 35.7498ZM20.5288 33.7561C20.9225 34.137 21.4488 34.35 21.9966 34.35C22.5444 34.35 23.0708 34.137 23.4644 33.7561L24.0626 31.5354V28.6686C22.7013 28.9436 21.2988 28.9436 19.9376 28.6686V31.5354L20.5288 33.7561Z" fill="white"/>
<path d="M14.4375 15.8125H11C10.8177 15.8125 10.6428 15.7401 10.5139 15.6111C10.3849 15.4822 10.3125 15.3073 10.3125 15.125V11.6875C10.3125 11.5052 10.3849 11.3303 10.5139 11.2014C10.6428 11.0724 10.8177 11 11 11H19.9375C20.0863 11 20.231 11.0482 20.35 11.1375C20.6361 11.3555 20.9629 11.5141 21.3112 11.6038C21.6595 11.6936 22.0223 11.7127 22.3781 11.66C22.5271 11.6367 22.6795 11.6631 22.812 11.7349C22.9445 11.8068 23.0497 11.9202 23.1115 12.0577C23.1732 12.1952 23.188 12.3492 23.1536 12.496C23.1193 12.6428 23.0376 12.7742 22.9213 12.87C20.5044 14.7764 17.5157 15.813 14.4375 15.8125ZM11.6875 14.4375H14.4375C16.5885 14.4366 18.7022 13.875 20.57 12.8081C20.2695 12.6985 19.9832 12.5531 19.7175 12.375H11.6875V14.4375Z" fill="white"/>
<path d="M32.9999 15.8125C32.0067 15.8128 31.0231 15.6175 30.1054 15.2377C29.1876 14.8578 28.3537 14.3009 27.6512 13.5988C27.1878 13.1272 26.7838 12.6008 26.4481 12.0313C26.3877 11.9267 26.356 11.8082 26.356 11.6875C26.356 11.5668 26.3877 11.4483 26.4481 11.3438C26.5086 11.2388 26.5959 11.1518 26.7009 11.0914C26.8059 11.0311 26.925 10.9995 27.0462 11H32.9999C33.1823 11 33.3571 11.0724 33.4861 11.2014C33.615 11.3303 33.6874 11.5052 33.6874 11.6875V15.125C33.6874 15.3073 33.615 15.4822 33.4861 15.6111C33.3571 15.7401 33.1823 15.8125 32.9999 15.8125ZM28.3868 12.375C28.4624 12.4575 28.5449 12.5469 28.6274 12.6225C29.4813 13.485 30.5727 14.0738 31.7624 14.3138C31.9412 14.3481 32.1268 14.3756 32.3124 14.3963V12.375H28.3868Z" fill="white"/>
<path d="M22 28.875C21.7525 28.875 21.5119 28.875 21.2713 28.875H21.1681C20.9344 28.875 20.7075 28.875 20.4806 28.8063C20.2538 28.7375 20.02 28.7306 19.7931 28.6825H19.745L19.1744 28.5313C18.8856 28.4488 18.6106 28.3594 18.3494 28.2563C18.2366 28.22 18.1264 28.1763 18.0194 28.1256C17.7339 27.9899 17.4562 27.8384 17.1875 27.6719C14.9883 26.5178 13.2794 24.6088 12.375 22.2956L12.2856 22.0688C12.2444 21.9588 12.21 21.8419 12.1756 21.7319V21.6425L12.1344 21.5188C12.0587 21.2781 11.9969 21.0375 11.9419 20.79C11.8869 20.5425 11.8456 20.3156 11.8113 20.0613C11.731 19.5657 11.6896 19.0646 11.6875 18.5625V15.125C11.6875 14.9427 11.7599 14.7678 11.8889 14.6389C12.0178 14.5099 12.1927 14.4375 12.375 14.4375H14.4375C17.2049 14.4355 19.8917 13.506 22.0687 11.7975C22.1639 11.7165 22.2813 11.6661 22.4056 11.6531C22.8588 11.5946 23.2882 11.4166 23.65 11.1375C23.769 11.0483 23.9137 11 24.0625 11H27.0463C27.1674 10.9995 27.2865 11.0311 27.3916 11.0914C27.4966 11.1518 27.5838 11.2388 27.6444 11.3438C27.9122 11.8129 28.243 12.2431 28.6275 12.6225C29.4814 13.485 30.5728 14.0738 31.7625 14.3138C31.9201 14.3459 32.0615 14.4323 32.162 14.5579C32.2625 14.6835 32.3157 14.8404 32.3125 15.0013V18.5625C32.3127 19.5279 32.1761 20.4885 31.9069 21.4156C31.7757 21.8864 31.6079 22.3461 31.405 22.7906C31.3363 22.9488 31.2469 23.1275 31.1575 23.2994C31.0681 23.4713 30.9581 23.6706 30.8481 23.8631C30.7381 24.0556 30.6488 24.1794 30.5456 24.3306L30.3187 24.6469C30.2921 24.6963 30.2598 24.7424 30.2225 24.7844C30.14 24.8944 30.0506 24.9975 29.9681 25.1006C29.5398 25.6321 29.0558 26.1161 28.5244 26.5444L28.3113 26.7163L28.2356 26.7713C27.9516 26.9894 27.6555 27.1914 27.3487 27.3763C27.2387 27.4519 27.115 27.5138 26.9981 27.5825C26.8813 27.6513 26.5925 27.8025 26.3863 27.8988C26.18 27.995 26.1319 28.0156 25.9875 28.0706C25.6063 28.2309 25.2161 28.3686 24.8187 28.4831L24.2412 28.6344H24.1931C23.9662 28.6825 23.7394 28.7238 23.5056 28.7581C23.2779 28.7934 23.0484 28.8163 22.8181 28.8269C22.776 28.8466 22.7323 28.8627 22.6875 28.875C22.4585 28.8875 22.229 28.8875 22 28.875ZM21.3606 27.5H21.4019C21.8019 27.5413 22.205 27.5413 22.605 27.5H22.6875C22.8855 27.4899 23.0829 27.4693 23.2788 27.4381C23.5056 27.4381 23.7187 27.3694 23.925 27.3213H23.9663L24.4269 27.2044C24.7773 27.1026 25.1216 26.9809 25.4581 26.84L25.7881 26.6956L26.3106 26.4275L26.6131 26.2488C26.876 26.0898 27.1307 25.9177 27.3762 25.7331L27.4587 25.6644C27.512 25.6293 27.5626 25.5902 27.61 25.5475C28.0821 25.1648 28.513 24.734 28.8956 24.2619C28.9735 24.174 29.047 24.0822 29.1156 23.9869L29.1844 23.9044C29.2669 23.7944 29.315 23.7188 29.37 23.6363C29.425 23.5538 29.5694 23.3338 29.6519 23.1963C29.7483 23.0411 29.8355 22.8804 29.9131 22.715C29.9956 22.5638 30.0713 22.4263 30.1331 22.2819C30.3091 21.8922 30.4562 21.49 30.5731 21.0788C30.8149 20.2619 30.9376 19.4144 30.9375 18.5625V15.5238C29.6942 15.1767 28.562 14.5135 27.6513 13.5988C27.2804 13.2257 26.9487 12.8156 26.6612 12.375H24.2825C23.8271 12.6786 23.3149 12.8868 22.7769 12.9869C20.382 14.8174 17.4519 15.8102 14.4375 15.8125H13.0625V18.5625C13.0628 18.9974 13.0949 19.4317 13.1587 19.8619C13.1931 20.0819 13.2275 20.295 13.2756 20.5013C13.3146 20.7063 13.3674 20.9084 13.4338 21.1063L13.4681 21.23V21.3194C13.5025 21.4088 13.53 21.505 13.5644 21.5944L13.6331 21.7731C14.4028 23.7793 15.8664 25.4429 17.7581 26.4619C17.985 26.5788 18.2188 26.6956 18.4456 26.7988L18.755 26.9156C18.9959 27.0104 19.2414 27.093 19.4906 27.1631C19.635 27.2044 19.7863 27.2456 19.9513 27.28H19.9856C20.1919 27.3281 20.405 27.3625 20.6181 27.3969C20.8313 27.4313 21.0238 27.445 21.2231 27.4588L21.3606 27.5Z" fill="white"/>
<path d="M12.7737 22H12.0312C11.029 21.9982 10.0682 21.5992 9.35951 20.8905C8.65078 20.1818 8.25182 19.221 8.25 18.2188C8.25182 17.2165 8.65078 16.2557 9.35951 15.547C10.0682 14.8383 11.029 14.4393 12.0312 14.4375H12.375C12.5573 14.4375 12.7322 14.5099 12.8611 14.6389C12.9901 14.7678 13.0625 14.9427 13.0625 15.125V18.5625C13.0605 19.4263 13.1856 20.2857 13.4338 21.1131C13.4648 21.2166 13.471 21.3259 13.4519 21.4322C13.4328 21.5385 13.3889 21.6388 13.3237 21.725C13.2597 21.8104 13.1767 21.8797 13.0812 21.9274C12.9857 21.9751 12.8805 22 12.7737 22ZM11.6875 15.8125C11.1648 15.8801 10.6802 16.1224 10.3125 16.5C10.0902 16.7241 9.9149 16.9904 9.79684 17.2832C9.67879 17.576 9.62037 17.8894 9.625 18.205C9.62046 18.8224 9.85344 19.418 10.2757 19.8684C10.698 20.3189 11.2773 20.5897 11.8937 20.625C11.7553 19.9463 11.6862 19.2552 11.6875 18.5625V15.8125Z" fill="white"/>
<path d="M31.9688 22H31.2263C31.1196 22 31.0143 21.9751 30.9189 21.9274C30.8234 21.8797 30.7404 21.8104 30.6763 21.725C30.6112 21.6388 30.5673 21.5385 30.5482 21.4322C30.5291 21.3259 30.5353 21.2166 30.5663 21.1131C30.8145 20.2857 30.9396 19.4263 30.9376 18.5625V15.125C30.9376 14.9427 31.01 14.7678 31.1389 14.6389C31.2679 14.5099 31.4427 14.4375 31.6251 14.4375H31.9688C32.9711 14.4393 33.9318 14.8383 34.6406 15.547C35.3493 16.2557 35.7482 17.2165 35.7501 18.2188C35.7482 19.221 35.3493 20.1818 34.6406 20.8905C33.9318 21.5992 32.9711 21.9982 31.9688 22ZM32.3126 15.8125V18.5625C32.3139 19.2552 32.2448 19.9463 32.1063 20.625C32.7017 20.6057 33.2673 20.3598 33.6876 19.9375C33.9099 19.7134 34.0852 19.4471 34.2032 19.1543C34.3213 18.8615 34.3797 18.5481 34.3751 18.2325C34.3844 17.6473 34.1801 17.0787 33.8005 16.6333C33.4208 16.1878 32.8919 15.896 32.3126 15.8125Z" fill="white"/>
<path d="M33.6875 12.375H24.0625C23.9182 12.375 23.7776 12.3296 23.6605 12.2452C23.5435 12.1609 23.4559 12.0418 23.4103 11.9049C23.3646 11.768 23.3632 11.6202 23.4063 11.4825C23.4493 11.3448 23.5346 11.2241 23.65 11.1375C24.1117 10.7912 24.4528 10.3084 24.6249 9.75747C24.797 9.20655 24.7914 8.61544 24.6089 8.06788C24.4264 7.52033 24.0762 7.04408 23.608 6.70659C23.1397 6.36911 22.5772 6.18751 22 6.18751C21.4228 6.18751 20.8603 6.36911 20.392 6.70659C19.9238 7.04408 19.5736 7.52033 19.3911 8.06788C19.2086 8.61544 19.203 9.20655 19.3751 9.75747C19.5472 10.3084 19.8883 10.7912 20.35 11.1375C20.4654 11.2241 20.5507 11.3448 20.5937 11.4825C20.6368 11.6202 20.6353 11.768 20.5897 11.9049C20.5441 12.0418 20.4565 12.1609 20.3395 12.2452C20.2224 12.3296 20.0818 12.375 19.9375 12.375H10.3125C10.1302 12.375 9.9553 12.3026 9.82636 12.1736C9.69743 12.0447 9.625 11.8698 9.625 11.6875V10.3125C9.625 7.94214 10.5666 5.66885 12.2427 3.99274C13.9188 2.31664 16.1921 1.37501 18.5625 1.37501H25.4375C26.7488 1.37305 28.0445 1.65966 29.2326 2.21452C30.4208 2.76938 31.4723 3.5789 32.3125 4.58564L32.3538 4.64064C33.6598 6.24254 34.3736 8.24569 34.375 10.3125V11.6875C34.375 11.8698 34.3026 12.0447 34.1736 12.1736C34.0447 12.3026 33.8698 12.375 33.6875 12.375ZM25.5681 11H33V10.3125C33.0009 8.55666 32.3908 6.85521 31.2744 5.50001C30.5645 4.63952 29.6731 3.94672 28.6639 3.47128C27.6548 2.99584 26.553 2.74953 25.4375 2.75001H18.5625C16.5568 2.75001 14.6332 3.54677 13.215 4.96502C11.7968 6.38326 11 8.30681 11 10.3125V11H18.4319C18.0682 10.3731 17.8761 9.66134 17.875 8.93653C17.8739 8.21173 18.0638 7.49943 18.4255 6.87136C18.7873 6.24329 19.3082 5.72163 19.9357 5.3589C20.5632 4.99618 21.2752 4.8052 22 4.8052C22.7248 4.8052 23.4368 4.99618 24.0643 5.3589C24.6918 5.72163 25.2127 6.24329 25.5745 6.87136C25.9362 7.49943 26.1261 8.21173 26.125 8.93653C26.1239 9.66134 25.9318 10.3731 25.5681 11Z" fill="white"/>
<path d="M22 13.0625C21.1069 13.066 20.2374 12.7762 19.525 12.2375C18.8324 11.718 18.3208 10.9938 18.0626 10.1674C17.8045 9.34106 17.8129 8.4544 18.0867 7.63306C18.3605 6.81172 18.8857 6.09735 19.5881 5.59113C20.2904 5.0849 21.1342 4.8125 22 4.8125C22.8658 4.8125 23.7096 5.0849 24.4119 5.59113C25.1143 6.09735 25.6395 6.81172 25.9133 7.63306C26.1871 8.4544 26.1955 9.34106 25.9374 10.1674C25.6792 10.9938 25.1676 11.718 24.475 12.2375C23.9222 12.655 23.271 12.9226 22.5844 13.0144C22.3912 13.0458 22.1958 13.0619 22 13.0625ZM22 6.1875C21.4228 6.1875 20.8603 6.3691 20.392 6.70658C19.9238 7.04407 19.5736 7.52032 19.3911 8.06787C19.2086 8.61543 19.203 9.20654 19.3751 9.75746C19.5472 10.3084 19.8883 10.7912 20.35 11.1375C20.6361 11.3555 20.9629 11.5141 21.3112 11.6038C21.6595 11.6936 22.0223 11.7127 22.3781 11.66C22.8408 11.6012 23.2796 11.421 23.65 11.1375C24.1117 10.7912 24.4528 10.3084 24.6249 9.75746C24.797 9.20654 24.7914 8.61543 24.6089 8.06787C24.4264 7.52032 24.0762 7.04407 23.608 6.70658C23.1397 6.3691 22.5772 6.1875 22 6.1875Z" fill="white"/>
<path d="M23.375 28.875H20.625C19.1663 28.875 17.7674 28.2955 16.7359 27.2641C15.7045 26.2326 15.125 24.8337 15.125 23.375V19.9375C15.125 19.7552 15.1974 19.5803 15.3264 19.4514C15.4553 19.3224 15.6302 19.25 15.8125 19.25H28.1875C28.3698 19.25 28.5447 19.3224 28.6736 19.4514C28.8026 19.5803 28.875 19.7552 28.875 19.9375V23.375C28.875 24.8337 28.2955 26.2326 27.2641 27.2641C26.2326 28.2955 24.8337 28.875 23.375 28.875ZM16.5 20.625V23.375C16.5 24.469 16.9346 25.5182 17.7082 26.2918C18.4818 27.0654 19.531 27.5 20.625 27.5H23.375C24.469 27.5 25.5182 27.0654 26.2918 26.2918C27.0654 25.5182 27.5 24.469 27.5 23.375V20.625H16.5Z" fill="#4FE5B5"/>
<path d="M15.8125 20.625C15.7132 20.625 15.6151 20.6035 15.5249 20.562C15.4347 20.5205 15.3546 20.4599 15.29 20.3844L11.165 15.5719C11.0465 15.4333 10.9879 15.2534 11.0021 15.0716C11.0163 14.8898 11.1021 14.7211 11.2407 14.6025C11.3792 14.484 11.5592 14.4254 11.741 14.4396C11.9228 14.4538 12.0915 14.5396 12.21 14.6782L16.335 19.4907C16.4205 19.5905 16.4755 19.7128 16.4935 19.843C16.5116 19.9732 16.492 20.1058 16.437 20.2252C16.382 20.3445 16.294 20.4456 16.1833 20.5165C16.0726 20.5874 15.944 20.625 15.8125 20.625Z" fill="#4FE5B5"/>
<path d="M28.1875 20.625C28.0561 20.625 27.9274 20.5874 27.8168 20.5165C27.7061 20.4456 27.618 20.3445 27.5631 20.2252C27.5081 20.1058 27.4885 19.9732 27.5065 19.843C27.5246 19.7128 27.5796 19.5905 27.665 19.4907L31.79 14.6782C31.8487 14.6095 31.9204 14.5532 32.0008 14.5122C32.0813 14.4713 32.1691 14.4466 32.2591 14.4396C32.3491 14.4326 32.4396 14.4433 32.5255 14.4713C32.6113 14.4993 32.6908 14.5438 32.7594 14.6025C32.828 14.6612 32.8844 14.7328 32.9254 14.8133C32.9663 14.8938 32.991 14.9815 32.998 15.0716C33.005 15.1616 32.9942 15.2521 32.9663 15.3379C32.9383 15.4238 32.8937 15.5033 32.835 15.5719L28.71 20.3844C28.6455 20.4599 28.5654 20.5205 28.4752 20.562C28.385 20.6035 28.2868 20.625 28.1875 20.625Z" fill="#4FE5B5"/>
<path d="M22 42.6249H15.125C14.9698 42.6302 14.8174 42.5828 14.6926 42.4904C14.5677 42.398 14.4778 42.2661 14.4375 42.1161L14.0388 40.6792C14.0156 40.5852 14.0115 40.4874 14.0269 40.3917C14.0422 40.296 14.0767 40.2044 14.1282 40.1224L15.5032 38.0049L14.0113 37.008C13.8653 36.912 13.7614 36.7641 13.7205 36.5943C13.6796 36.4245 13.7049 36.2454 13.7913 36.0936L16.5413 31.2811C16.6057 31.1688 16.7005 31.0769 16.8149 31.0161C16.9292 30.9553 17.0584 30.928 17.1875 30.9374H19.25C19.4053 30.932 19.5577 30.9794 19.6825 31.0718C19.8074 31.1642 19.8973 31.2961 19.9375 31.4461L22.6875 41.7586C22.7144 41.8611 22.7172 41.9684 22.6957 42.0722C22.6743 42.1759 22.6291 42.2733 22.5638 42.3567C22.4977 42.4427 22.4121 42.5119 22.3141 42.5585C22.2161 42.6051 22.1085 42.6278 22 42.6249ZM15.6475 41.2499H21.1063L18.7207 32.3124H17.5863L15.3519 36.2242L16.8782 37.2417C17.03 37.3415 17.1362 37.4972 17.1736 37.675C17.2109 37.8527 17.1764 38.0381 17.0775 38.1905L15.4757 40.6174L15.6475 41.2499Z" fill="white"/>
<path d="M28.8751 42.625H22.0001C21.8951 42.6248 21.7916 42.6005 21.6974 42.554C21.6033 42.5075 21.521 42.4401 21.457 42.3569C21.3917 42.2735 21.3465 42.1761 21.325 42.0723C21.3036 41.9686 21.3064 41.8612 21.3332 41.7588L23.3957 33.9556C23.3957 33.9556 23.3957 33.9556 23.3957 33.9075L24.0832 31.4463C24.1227 31.2998 24.2095 31.1704 24.3301 31.0784C24.4507 30.9864 24.5984 30.9368 24.7501 30.9375H26.8126C26.9338 30.937 27.0529 30.9686 27.1579 31.0289C27.263 31.0893 27.3502 31.1763 27.4107 31.2813L30.1607 36.0938C30.2471 36.2456 30.2724 36.4246 30.2316 36.5944C30.1907 36.7643 30.0867 36.9122 29.9407 37.0081L28.4489 38.005L29.8239 40.1225C29.8754 40.2046 29.9098 40.2962 29.9252 40.3919C29.9405 40.4875 29.9365 40.5853 29.9132 40.6794L29.5626 42.1163C29.5223 42.2662 29.4324 42.3982 29.3076 42.4906C29.1828 42.5829 29.0303 42.6303 28.8751 42.625ZM22.8939 41.25H28.3526L28.5245 40.6175L26.9226 38.1906C26.8238 38.0382 26.7893 37.8529 26.8266 37.6751C26.864 37.4974 26.9702 37.3416 27.122 37.2419L28.6482 36.2244L26.4139 32.3125H25.2795L24.7501 34.2238C24.7501 34.2238 24.7501 34.2238 24.7501 34.2719L22.8939 41.25Z" fill="white"/>
</svg>
