<svg width="44" height="44" viewBox="0 0 44 44" fill="none" xmlns="http://www.w3.org/2000/svg">
<path opacity="0.5" d="M31.6252 25.4375H20.6252C19.1065 25.4375 17.8752 26.6687 17.8752 28.1875V39.1875C17.8752 40.7063 19.1065 41.9375 20.6252 41.9375H31.6252C33.144 41.9375 34.3752 40.7063 34.3752 39.1875V28.1875C34.3752 26.6687 33.144 25.4375 31.6252 25.4375Z" fill="#4FE5B5"/>
<path d="M28.827 39.8749C27.9037 39.8754 27.0069 39.566 26.2802 38.9964C25.5535 38.4268 25.0389 37.6298 24.8189 36.733L23.3339 30.6693C23.2594 30.372 23.0876 30.1081 22.846 29.9195C22.6043 29.731 22.3066 29.6286 22.0001 29.6286C21.6936 29.6286 21.3959 29.731 21.1542 29.9195C20.9126 30.1081 20.7409 30.372 20.6664 30.6693L19.1814 36.733C18.9681 37.6313 18.4537 38.4295 17.7239 38.9949C17.1716 39.4286 16.5177 39.714 15.8242 39.8243C15.1307 39.9345 14.4206 39.8659 13.761 39.6249C13.1015 39.384 12.5143 38.9786 12.0552 38.4473C11.5962 37.916 11.2803 37.2762 11.1376 36.5887L9.39825 28.1462C8.99278 25.9383 8.04813 23.8648 6.64825 22.1099C4.80957 19.8792 3.92294 17.0143 4.18012 14.1349C4.33036 12.4762 4.85531 10.8732 5.71536 9.44696C6.57541 8.02068 7.74811 6.80832 9.14501 5.90133C10.5419 4.99434 12.1265 4.4164 13.7793 4.2111C15.4322 4.0058 17.11 4.1785 18.6864 4.71617C20.8284 5.47262 23.1649 5.47262 25.307 4.71617C26.8845 4.1747 28.5646 3.99905 30.22 4.20252C31.8754 4.40598 33.4629 4.98323 34.8624 5.8906C36.2618 6.79797 37.4367 8.01171 38.2979 9.44C39.1592 10.8683 39.6844 12.4737 39.8339 14.1349C40.0892 17.012 39.2027 19.8741 37.3657 22.103C36.9561 22.5998 36.5903 23.1312 36.2726 23.6912C36.1933 23.8297 36.0684 23.9363 35.9191 23.9927C35.7698 24.0492 35.6056 24.0519 35.4545 24.0005L33.6876 23.4093L28.1876 25.2449V30.7999C28.1629 32.1247 28.4633 33.4354 29.0626 34.6172C29.6619 35.799 30.5417 36.8158 31.6251 37.5787C31.7086 37.6341 31.7789 37.7072 31.8311 37.7927C31.8834 37.8782 31.9163 37.9741 31.9276 38.0737C31.9396 38.1728 31.9298 38.2734 31.8989 38.3684C31.868 38.4634 31.8168 38.5505 31.7489 38.6237C31.6458 38.7339 31.5355 38.8373 31.4189 38.933C30.6885 39.5351 29.7734 39.8676 28.827 39.8749ZM22.0001 28.2424C22.6174 28.2346 23.2187 28.4384 23.7041 28.8199C24.1894 29.2014 24.5294 29.7376 24.6676 30.3393L26.1251 36.4374C26.2253 36.8465 26.4182 37.227 26.6887 37.5498C26.9593 37.8725 27.3004 38.1288 27.6857 38.2989C28.071 38.4689 28.4902 38.5482 28.911 38.5306C29.3317 38.513 29.7429 38.399 30.1126 38.1974C29.058 37.2783 28.2165 36.1403 27.6465 34.8627C27.0766 33.5851 26.792 32.1987 26.8126 30.7999V24.7499C26.8048 24.6 26.8463 24.4516 26.9307 24.3275C27.0151 24.2034 27.1378 24.1103 27.2801 24.0624L33.4676 21.9999C33.6103 21.9517 33.7649 21.9517 33.9076 21.9999L35.372 22.488C35.6547 22.0392 35.9671 21.6097 36.307 21.2024C37.9173 19.2543 38.691 16.748 38.4589 14.2312C38.3291 12.7776 37.8705 11.3726 37.1177 10.1224C36.365 8.87213 35.3378 7.80945 34.1138 7.01468C32.8899 6.21991 31.5012 5.71387 30.0529 5.53482C28.6046 5.35576 27.1345 5.5084 25.7539 5.98117C23.321 6.82998 20.6724 6.82998 18.2395 5.98117C16.8592 5.50966 15.3899 5.35801 13.9424 5.53768C12.495 5.71734 11.1073 6.22362 9.88421 7.01826C8.66112 7.8129 7.63463 8.87512 6.88229 10.1247C6.12994 11.3742 5.67142 12.7784 5.54137 14.2312C5.30924 16.748 6.0829 19.2543 7.69325 21.2024C9.24031 23.1321 10.2886 25.413 10.7457 27.8437L12.4851 36.2862C12.6089 36.9087 12.9442 37.4693 13.4341 37.8727C13.9241 38.2762 14.5385 38.4978 15.1732 38.4999C15.7905 38.4985 16.3899 38.2931 16.8782 37.9155C17.3655 37.5472 17.7162 37.0272 17.8751 36.4374L19.3601 30.3668C19.4919 29.7647 19.8255 29.2257 20.3057 28.8393C20.7859 28.4529 21.3838 28.2423 22.0001 28.2424Z" fill="white"/>
<path d="M22.0002 10.9999C19.2211 10.9487 16.4987 10.2043 14.0802 8.83432C13.9869 8.79864 13.9024 8.74303 13.8328 8.67138C13.7631 8.59974 13.7099 8.51376 13.6768 8.41945C13.6438 8.32514 13.6317 8.22476 13.6414 8.1253C13.6512 8.02584 13.6824 7.9297 13.7331 7.84356C13.7838 7.75743 13.8526 7.68337 13.9348 7.62656C14.017 7.56975 14.1106 7.53154 14.2091 7.51459C14.3076 7.49765 14.4086 7.50238 14.5051 7.52845C14.6015 7.55453 14.6912 7.60132 14.7677 7.66557C16.9847 8.89379 19.4664 9.56613 22.0002 9.62494C24.5251 9.5647 26.9976 8.89232 29.2052 7.66557C29.2817 7.60132 29.3714 7.55453 29.4678 7.52845C29.5643 7.50238 29.6653 7.49765 29.7638 7.51459C29.8623 7.53154 29.9559 7.56975 30.0381 7.62656C30.1203 7.68337 30.1891 7.75743 30.2398 7.84356C30.2905 7.9297 30.3217 8.02584 30.3315 8.1253C30.3412 8.22476 30.3291 8.32514 30.2961 8.41945C30.263 8.51376 30.2098 8.59974 30.1402 8.67138C30.0705 8.74303 29.986 8.79864 29.8927 8.83432C27.4823 10.1999 24.77 10.9442 22.0002 10.9999Z" fill="white"/>
<path d="M33.6877 39.875H33.5365C32.5914 39.6645 31.6938 39.2798 30.8896 38.7406C29.6129 37.8509 28.5738 36.6619 27.863 35.2776C27.1523 33.8933 26.7917 32.356 26.8127 30.8V24.75C26.8049 24.6001 26.8463 24.4517 26.9308 24.3276C27.0152 24.2035 27.1379 24.1104 27.2802 24.0625L33.4677 22C33.6104 21.9518 33.765 21.9518 33.9077 22L40.0952 24.0625C40.2375 24.1104 40.3602 24.2035 40.4446 24.3276C40.5291 24.4517 40.5705 24.6001 40.5627 24.75V30.8C40.5627 35.1863 37.7371 38.995 33.839 39.8613L33.6877 39.875ZM28.1877 25.245V30.8C28.163 32.1248 28.4634 33.4355 29.0627 34.6173C29.6619 35.7991 30.5418 36.8159 31.6252 37.5788C32.2503 38.0098 32.9495 38.3221 33.6877 38.5C36.8846 37.7094 39.1877 34.5056 39.1877 30.8206V25.245L33.6877 23.4094L28.1877 25.245Z" fill="#4FE5B5"/>
<path d="M33.0001 32.9999C32.9096 33.0004 32.82 32.9831 32.7362 32.9489C32.6524 32.9146 32.5762 32.8642 32.512 32.8005L31.137 31.4255C31.0075 31.296 30.9348 31.1205 30.9348 30.9374C30.9348 30.7543 31.0075 30.5787 31.137 30.4493C31.2665 30.3198 31.442 30.2471 31.6251 30.2471C31.8082 30.2471 31.9838 30.3198 32.1133 30.4493L33.0001 31.343L35.9495 28.3868C36.079 28.2573 36.2545 28.1846 36.4376 28.1846C36.6207 28.1846 36.7963 28.2573 36.9258 28.3868C37.0552 28.5162 37.1279 28.6918 37.1279 28.8749C37.1279 29.058 37.0552 29.2335 36.9258 29.363L33.4883 32.8005C33.424 32.8642 33.3478 32.9146 33.2641 32.9489C33.1803 32.9831 33.0906 33.0004 33.0001 32.9999Z" fill="#4FE5B5"/>
</svg>
